<svg version="1.2" xmlns="http://www.w3.org/2000/svg" viewBox="0 0 97 48" width="200" height="100">
	<title>logo-svg</title>
	<defs>
		<clipPath clipPathUnits="userSpaceOnUse" id="cp1">
			<path d="m-37.35-33.76h677.33v832.35h-677.33z" />
		</clipPath>
	</defs>
	<style>
		.s0 { fill: #ffffff } 
		.s1 { fill: #2c3476 } 
	</style>
	<g id="layer1">
		<g id="g18">
			<g id="Clip-Path: g20" clip-path="url(#cp1)">
				<g id="g20">
					<g id="g26">
						<path id="path28" class="s0" d="m40.9 1.7c0 1-0.8 1.8-1.8 1.8-0.9 0-1.7-0.8-1.7-1.8 0-0.9 0.8-1.7 1.7-1.7 1 0 1.8 0.8 1.8 1.7z" />
					</g>
					<g id="g30">
						<path id="path32" class="s0" d="m58 37.5c-1 0-1.8-0.8-1.8-1.8 0-0.9 0.8-1.7 1.8-1.7 0.9 0 1.7 0.8 1.7 1.7 0 1-0.8 1.8-1.7 1.8z" />
					</g>
					<g id="g34">
						<path id="path36" class="s0" d="m68.9 22.5c0 1-0.8 1.7-1.7 1.7-1 0-1.8-0.7-1.8-1.7 0-1 0.8-1.7 1.8-1.7 0.9 0 1.7 0.7 1.7 1.7z" />
					</g>
					<g id="g38">
						<path id="path40" fill-rule="evenodd" class="s0" d="m67.8 37.5h-1.1c-3.1 0-5.6-2.5-5.6-5.5v-5.8c0-1.7-1.3-3.1-3-3.1h-0.3c-1.7 0-3.1 1.4-3.1 3.1v5.8c0 3-2.5 5.5-5.5 5.5h-0.8c-3.1 0-5.6-2.5-5.6-5.5v-13.8h-0.1c-1.7 0-3.1 1.3-3.1 3v10.8c0 3-2.4 5.5-5.5 5.5h-6.2c-3 0-5.5-2.5-5.5-5.5v-5.8c0-1.7-1.4-3.1-3-3.1h-18.2c-0.6 0-1.2-0.6-1.2-1.2 0-0.7 0.6-1.3 1.2-1.3h18.2c3 0 5.5 2.5 5.5 5.6v5.8c0 1.7 1.4 3 3 3h6.2c1.7 0 3.1-1.3 3.1-3v-10.8c0-3 2.4-5.5 5.5-5.5h0.1v-10.1c0-3 2.5-5.5 5.6-5.5 3 0 5.5 2.5 5.5 5.5v7c0 3.1-2.5 5.6-5.5 5.6h-3.1v13.8c0 1.7 1.4 3 3.1 3h0.8c1.7 0 3-1.3 3-3v-5.8c0-3.1 2.5-5.6 5.6-5.6h0.3c3 0 5.5 2.5 5.5 5.6v5.8c0 1.7 1.4 3 3.1 3h1.1c1.7 0 3.1-1.3 3.1-3v-5.8c0-3.1 2.4-5.6 5.5-5.6h18.7c0.7 0 1.3 0.6 1.3 1.3 0 0.6-0.6 1.2-1.3 1.2h-18.7c-1.7 0-3.1 1.4-3.1 3.1v5.8c0 3-2.4 5.5-5.5 5.5zm-22.5-21.8h3.1c1.6 0 3-1.4 3-3.1v-7c0-1.6-1.4-3-3-3-1.7 0-3.1 1.4-3.1 3z" />
					</g>
					<g id="g42">
						<path id="path44" class="s1" d="m2.8 78.6q-0.6-0.4-0.8-1.2-0.3-0.7-0.3-2.1 0-1.4 0.3-2.2 0.2-0.8 0.8-1.2 0.6-0.3 1.7-0.3 0.8 0 1.8 0.2c0.2 0 0.3 0.2 0.3 0.4v0.4c0 0.2-0.2 0.4-0.5 0.4q-0.7-0.1-1.2-0.1-0.7 0-1 0.2-0.4 0.2-0.5 0.7-0.2 0.5-0.2 1.3v0.4q0.1 0.9 0.2 1.4 0.1 0.4 0.4 0.7 0.3 0.2 1 0.2 0.6 0 1.3-0.1c0.3-0.1 0.5 0.1 0.5 0.4v0.4c0 0.2-0.2 0.3-0.4 0.4q-0.9 0.1-1.6 0.1-1.2 0-1.8-0.4z" />
					</g>
					<g id="g46">
						<path id="path48" class="s1" d="m9.1 78.4q-0.6-0.6-0.6-1.9v-4.4c0-0.2 0.2-0.4 0.4-0.4h0.6c0.2 0 0.4 0.2 0.4 0.4v4.4q0 1.3 1.3 1.3 1.3 0 1.3-1.3v-4.4c0-0.2 0.2-0.4 0.4-0.4h0.6c0.3 0 0.5 0.2 0.5 0.4v4.4q0 1.3-0.7 1.9-0.7 0.6-2.1 0.6-1.4 0-2.1-0.6z" />
					</g>
					<g id="g50">
						<path id="path52" class="s1" d="m16.3 78.8c-0.2-0.1-0.4-0.3-0.3-0.5v-0.3c0-0.2 0.2-0.4 0.5-0.4q1.1 0.2 1.7 0.2 1.1 0 1.1-1 0-0.3-0.2-0.5-0.3-0.2-1-0.4-0.9-0.2-1.4-0.5-0.4-0.3-0.7-0.7-0.2-0.4-0.2-1 0-1 0.7-1.6 0.6-0.5 1.8-0.5 0.4 0 0.9 0 0.4 0.1 1.1 0.2c0.2 0 0.3 0.2 0.3 0.4v0.4c0 0.2-0.3 0.4-0.5 0.4q-1.1-0.1-1.7-0.1-1.1 0-1.1 0.7 0 0.3 0.2 0.5 0.2 0.1 0.4 0.2 0.3 0.1 1 0.4 0.7 0.2 1.1 0.4 0.4 0.3 0.6 0.7 0.2 0.4 0.2 0.9 0 1.2-0.7 1.8-0.6 0.5-1.8 0.5-0.8 0-2-0.2z" />
					</g>
					<g id="g54">
						<path id="path56" class="s1" d="m23.6 73h-1.1c-0.2 0-0.4-0.2-0.4-0.4v-0.5c0-0.2 0.2-0.4 0.4-0.4h4.5c0.2 0 0.4 0.2 0.4 0.4v0.5c0 0.2-0.2 0.4-0.4 0.4h-1.1c-0.2 0-0.4 0.2-0.4 0.4v5.1c0 0.2-0.2 0.4-0.4 0.4h-0.7c-0.2 0-0.4-0.2-0.4-0.4v-5.1c0-0.2-0.2-0.4-0.4-0.4z" />
					</g>
					<g id="g58">
						<path id="path60" fill-rule="evenodd" class="s1" d="m29.9 78.7q-0.7-0.4-0.9-1.3-0.3-0.8-0.3-2.1 0-1.3 0.3-2.1 0.2-0.8 0.9-1.2 0.7-0.4 1.8-0.4 1 0 1.7 0.4 0.7 0.4 1 1.2 0.2 0.8 0.2 2.1 0 1.3-0.2 2.1-0.3 0.8-1 1.2-0.6 0.4-1.7 0.4-1.1 0-1.8-0.3zm2.6-1.2q0.4-0.2 0.5-0.7 0.1-0.6 0.1-1.5 0-0.9-0.1-1.4-0.1-0.5-0.5-0.8-0.3-0.2-0.8-0.2-0.6 0-0.9 0.2-0.4 0.3-0.5 0.8-0.1 0.5-0.1 1.4 0 0.9 0.1 1.4 0.1 0.5 0.4 0.8 0.3 0.3 1 0.3 0.5 0 0.8-0.3z" />
					</g>
					<g id="g62">
						<path id="path64" class="s1" d="m44.2 72.1v6.4c0 0.2-0.2 0.4-0.4 0.4h-0.7c-0.2 0-0.4-0.2-0.4-0.4v-5.2h-0.2l-1.3 5c0 0.2-0.2 0.3-0.4 0.3h-0.8c-0.2 0-0.4-0.1-0.4-0.3l-1.3-5h-0.2v5.2c0 0.2-0.2 0.4-0.4 0.4h-0.6c-0.3 0-0.5-0.2-0.5-0.4v-6.4c0-0.2 0.2-0.4 0.5-0.4h1.7c0.2 0 0.4 0.1 0.4 0.3l0.8 3.3c0.1 0.4 0.7 0.4 0.8 0l0.8-3.3c0-0.2 0.2-0.3 0.4-0.3h1.8c0.2 0 0.4 0.2 0.4 0.4z" />
					</g>
					<g id="g66">
						<path id="path68" class="s1" d="m47.9 73.4v0.9c0 0.2 0.2 0.4 0.5 0.4h1.7c0.2 0 0.4 0.2 0.4 0.4v0.4c0 0.2-0.2 0.4-0.4 0.4h-1.7c-0.3 0-0.5 0.2-0.5 0.4v0.9c0 0.3 0.2 0.4 0.5 0.4h2.3c0.3 0 0.4 0.2 0.4 0.5v0.4c0 0.2-0.1 0.4-0.4 0.4h-3.8c-0.2 0-0.4-0.2-0.4-0.4v-6.4c0-0.2 0.2-0.4 0.4-0.4h3.8c0.3 0 0.4 0.2 0.4 0.4v0.5c0 0.2-0.1 0.4-0.4 0.4h-2.3c-0.3 0-0.5 0.2-0.5 0.4z" />
					</g>
					<g id="g70">
						<path id="path72" fill-rule="evenodd" class="s1" d="m53.1 72.1c0-0.2 0.2-0.4 0.4-0.4h2.4q2.5 0 2.5 2.4 0 1.2-0.8 1.9c-0.1 0.1-0.2 0.3-0.1 0.5l0.7 1.9c0.1 0.2-0.1 0.5-0.4 0.5h-0.7c-0.2 0-0.3-0.1-0.4-0.3l-0.6-1.8c-0.1-0.2-0.2-0.3-0.4-0.3h-0.7c-0.3 0-0.4 0.2-0.4 0.4v1.6c0 0.2-0.2 0.4-0.5 0.4h-0.6c-0.2 0-0.4-0.2-0.4-0.4zm2.8 3.1q0.5 0 0.8-0.3 0.2-0.3 0.2-0.8 0-0.6-0.2-0.9-0.3-0.3-0.8-0.3h-0.9c-0.3 0-0.4 0.2-0.4 0.5v1.4c0 0.2 0.1 0.4 0.4 0.4z" />
					</g>
					<g id="g74">
						<path id="path76" fill-rule="evenodd" class="s1" d="m63.5 72.1c0-0.2 0.2-0.4 0.4-0.4h2.2q2.6 0 2.6 2.5 0 1.3-0.6 2-0.7 0.6-2 0.6h-0.7c-0.3 0-0.4 0.2-0.4 0.4v1.3c0 0.2-0.2 0.4-0.5 0.4h-0.6c-0.2 0-0.4-0.2-0.4-0.4zm2.6 3.5q1.1 0 1.1-1.4 0-0.7-0.2-1-0.3-0.3-0.9-0.3h-0.7c-0.3 0-0.4 0.2-0.4 0.5v1.7c0 0.3 0.1 0.5 0.4 0.5z" />
					</g>
					<g id="g78">
						<path id="path80" class="s1" d="m71 78.4q-0.6-0.6-0.6-1.9v-4.4c0-0.2 0.2-0.4 0.4-0.4h0.6c0.2 0 0.4 0.2 0.4 0.4v4.4q0 1.3 1.3 1.3 1.3 0 1.3-1.3v-4.4c0-0.2 0.2-0.4 0.4-0.4h0.6c0.3 0 0.5 0.2 0.5 0.4v4.4q0 1.3-0.7 1.9-0.7 0.6-2.1 0.6-1.4 0-2.1-0.6z" />
					</g>
					<g id="g82">
						<path id="path84" class="s1" d="m82.2 78v0.5c0 0.2-0.2 0.4-0.4 0.4h-3.3c-0.2 0-0.4-0.2-0.4-0.4v-6.4c0-0.2 0.2-0.4 0.4-0.4h0.7c0.2 0 0.4 0.2 0.4 0.4v5.1c0 0.2 0.2 0.4 0.4 0.4h1.8c0.2 0 0.4 0.2 0.4 0.4z" />
					</g>
					<g id="g86">
						<path id="path88" class="s1" d="m83.9 78.8c-0.2-0.1-0.3-0.3-0.3-0.5v-0.3c0.1-0.2 0.3-0.4 0.5-0.4q1.1 0.2 1.8 0.2 1.1 0 1.1-1 0-0.3-0.3-0.5-0.3-0.2-1-0.4-0.8-0.2-1.3-0.5-0.5-0.3-0.7-0.7-0.2-0.4-0.2-1 0-1 0.6-1.6 0.7-0.5 1.8-0.5 0.5 0 1 0 0.4 0.1 1 0.2c0.2 0 0.4 0.2 0.4 0.4l-0.1 0.4c0 0.2-0.2 0.4-0.4 0.4q-1.2-0.1-1.7-0.1-1.2 0-1.2 0.7 0 0.3 0.2 0.5 0.2 0.1 0.5 0.2 0.3 0.1 1 0.4 0.7 0.2 1.1 0.4 0.4 0.3 0.6 0.7 0.2 0.4 0.2 0.9 0 1.2-0.7 1.8-0.7 0.5-1.8 0.5-0.9 0-2.1-0.2z" />
					</g>
					<g id="g90">
						<path id="path92" class="s1" d="m91.8 73.4v0.9c0 0.2 0.2 0.4 0.4 0.4h1.8c0.2 0 0.4 0.2 0.4 0.4v0.4c0 0.2-0.2 0.4-0.4 0.4h-1.8c-0.2 0-0.4 0.2-0.4 0.4v0.9c0 0.3 0.2 0.4 0.4 0.4h2.4c0.3 0 0.4 0.2 0.4 0.5v0.4c0 0.2-0.1 0.4-0.4 0.4h-3.8c-0.2 0-0.4-0.2-0.4-0.4v-6.4c0-0.2 0.2-0.4 0.4-0.4h3.8c0.3 0 0.4 0.2 0.4 0.4v0.5c0 0.2-0.1 0.4-0.4 0.4h-2.4c-0.2 0-0.4 0.2-0.4 0.4z" />
					</g>
					<g id="g94">
						<path id="path96" fill-rule="evenodd" class="s1" d="m31.2 58.9q0.7 0.7 0.7 2.3v2.4c0 0.2-0.2 0.4-0.5 0.4h-23.8c-0.3 0-0.5 0.2-0.5 0.4q0 0.8-0.4 1.3-0.3 0.5-1 0.8-0.6 0.3-1.4 0.3-0.8 0-1.5-0.3-0.7-0.3-1.1-0.9-0.4-0.5-0.4-1.2 0-0.4 0.2-1.4 0.1-0.9 0.2-1.7c0.1-0.2 0.2-0.4 0.5-0.4 0.2 0 0.4 0.3 0.4 0.5q-0.2 0.9-0.3 1.6-0.1 1-0.1 1.3 0 0.5 0.3 0.9 0.3 0.4 0.7 0.6 0.5 0.2 1.1 0.2 0.8 0 1.4-0.4 0.6-0.5 0.6-1.3v-8c0-0.2 0.2-0.4 0.4-0.4 0.2 0 0.4 0.2 0.4 0.4v6.5c0 0.2 0.2 0.4 0.5 0.4h19.1c0.2 0 0.4-0.2 0.4-0.5q-0.1-0.7-0.1-1.5 0-0.7 0.1-1.5 0.1-0.5 0.2-0.9 0-0.3 0.2-0.3 0.3-0.1 0.6-0.2 0.5-0.1 1.1-0.1 1.4 0 2 0.7zm-0.2 3.9v-1.6q0-1.2-0.5-1.7-0.5-0.5-1.5-0.5-0.3 0-0.6 0.1c-0.2 0-0.4 0.1-0.4 0.3q-0.1 0.9-0.1 1.8 0 0.6 0 1.1 0.1 0.3 0.1 0.5c0 0.3 0.2 0.4 0.4 0.4h2.2c0.2 0 0.4-0.2 0.4-0.4z" />
					</g>
					<g id="g98">
						<path id="path100" class="s1" d="m45.6 56.8v0.1c0 0.2-0.2 0.4-0.4 0.4-0.3 0-0.4-0.2-0.4-0.4v-0.1c0-0.2 0.1-0.4 0.4-0.4 0.2 0 0.4 0.2 0.4 0.4z" />
					</g>
					<g id="g102">
						<path id="path104" class="s1" d="m44.2 56.8v0.1c0 0.2-0.2 0.4-0.4 0.4-0.3 0-0.4-0.2-0.4-0.4v-0.1c0-0.2 0.1-0.4 0.4-0.4 0.2 0 0.4 0.2 0.4 0.4z" />
					</g>
					<g id="g106">
						<path id="path108" fill-rule="evenodd" class="s1" d="m55.8 56.3c0-0.2 0.2-0.4 0.4-0.4 0.3 0 0.5 0.2 0.5 0.4v7.3c0 0.2-0.2 0.4-0.5 0.4h-2.2q-0.2 0-0.4-0.1-0.2-0.1-0.5-0.4v0.1c0 0.2-0.1 0.4-0.4 0.4h-11.5q-0.6 0-1.2-0.1-0.4-0.2-0.8-0.3-0.2-0.1-0.4 0-0.4 0.1-0.9 0.2-0.5 0.2-1.1 0.2h-2.8c-0.3 0-0.4-0.2-0.4-0.4v-7.3c0-0.2 0.1-0.4 0.4-0.4 0.2 0 0.4 0.2 0.4 0.4v6.5c0 0.2 0.2 0.4 0.4 0.4h2q0.3 0 0.6 0c0.3-0.1 0.4-0.5 0.2-0.7q-0.5-0.5-0.8-1.1-0.6-0.9-0.6-1.6v-0.5c0-0.2 0.1-0.3 0.2-0.4q1.3-0.7 2.6-0.7 1.2 0 2.5 0.7c0.2 0.1 0.3 0.2 0.3 0.4l-0.1 0.5q0 0.4-0.2 1-0.2 0.6-0.7 1.1-0.2 0.3-0.4 0.6c-0.3 0.2-0.1 0.6 0.2 0.7q0.3 0 0.6 0h2.4c0.3 0 0.5-0.2 0.5-0.4v-4c0-0.3 0.1-0.4 0.4-0.4 0.2 0 0.4 0.1 0.4 0.4v4c0 0.2 0.2 0.4 0.4 0.4h2.7c0.2 0 0.4-0.2 0.4-0.5q-0.1-0.7-0.1-1.5 0-0.7 0.1-1.5 0.1-0.5 0.1-0.9 0.1-0.3 0.3-0.3 0.3-0.1 0.6-0.2 0.5-0.1 1.1-0.1 1.3 0 2 0.7 0.6 0.7 0.6 2.3v1.4q0.1 0.2 0.2 0.3 0.3 0.3 0.7 0.3h1.4c0.2 0 0.4-0.2 0.4-0.4zm-15.4 4.8q0.4-0.6 0.5-1.4c0-0.2-0.1-0.3-0.3-0.4q-0.9-0.3-1.6-0.3-0.7 0-1.6 0.3c-0.2 0.1-0.3 0.2-0.3 0.4q0.1 0.8 0.5 1.4 0.4 0.7 1.1 1.2c0.2 0.1 0.4 0.1 0.5 0q0.7-0.5 1.2-1.2zm11.9 1.7v-1.7q0-1.1-0.5-1.6-0.5-0.5-1.5-0.5-0.3 0-0.7 0c-0.1 0.1-0.3 0.2-0.3 0.4q-0.1 0.8-0.1 1.8 0 0.6 0 1.1 0 0.3 0.1 0.5c0 0.2 0.2 0.4 0.4 0.4h2.2c0.2 0 0.4-0.2 0.4-0.4z" />
					</g>
					<g id="g110">
						<path id="path112" class="s1" d="m59.1 55.9c0.3 0 0.5 0.2 0.5 0.4v7.3c0 0.2-0.2 0.4-0.5 0.4-0.2 0-0.4-0.2-0.4-0.4v-7.3c0-0.2 0.2-0.4 0.4-0.4z" />
					</g>
					<g id="g114">
						<path id="path116" class="s1" d="m72.2 56.8v0.1c0 0.2-0.1 0.4-0.4 0.4-0.2 0-0.4-0.2-0.4-0.4v-0.1c0-0.2 0.2-0.4 0.4-0.4 0.3 0 0.4 0.2 0.4 0.4z" />
					</g>
					<g id="g118">
						<path id="path120" class="s1" d="m89.3 65.4v-0.1c0-0.2 0.2-0.4 0.4-0.4 0.3 0 0.5 0.2 0.5 0.4v0.1c0 0.2-0.2 0.4-0.5 0.4-0.2 0-0.4-0.2-0.4-0.4z" />
					</g>
					<g id="g122">
						<path id="path124" class="s1" d="m94.4 56.8v0.1c0 0.2-0.2 0.4-0.4 0.4h-0.1c-0.2 0-0.4-0.2-0.4-0.4v-0.1c0-0.2 0.2-0.4 0.4-0.4h0.1c0.2 0 0.4 0.2 0.4 0.4z" />
					</g>
					<g id="g126">
						<path id="path128" fill-rule="evenodd" class="s1" d="m93.9 58.4h0.1c0.2 0 0.4 0.1 0.4 0.4v4.8c0 0.2-0.2 0.4-0.4 0.4h-24.3c-0.2 0-0.4 0.2-0.4 0.4q0 0.8-0.4 1.3-0.4 0.5-1 0.8-0.7 0.3-1.4 0.3-0.9 0-1.5-0.3-0.7-0.3-1.1-0.9-0.4-0.5-0.4-1.2 0-0.4 0.1-1.4 0.1-0.9 0.3-1.7c0-0.2 0.2-0.4 0.4-0.4 0.3 0 0.4 0.3 0.4 0.5q-0.3 2.3-0.3 2.8 0 0.5 0.2 0.9 0.3 0.5 0.8 0.7 0.4 0.2 1 0.2 0.5 0 1-0.2 0.5-0.2 0.7-0.6 0.3-0.4 0.3-0.9v-5.5c0-0.3 0.2-0.4 0.4-0.4h0.3c0.1 0 0.2 0 0.2 0.1v1.3c0 0.1 0.2 0.2 0.2 0.1q0.4-0.5 0.7-0.8 0.4-0.4 1-0.6 0.5-0.3 1.2-0.3 1.5 0 2.1 0.9 0.5 0.9 0.5 2.1v1.6c0 0.2 0.2 0.4 0.5 0.4h13.4c0.2 0 0.4-0.2 0.4-0.4v-4c0-0.3 0.2-0.4 0.4-0.4h0.1c0.2 0 0.4 0.1 0.4 0.4v4c0 0.2 0.2 0.4 0.4 0.4h2.5c0.2 0 0.4-0.2 0.4-0.4v-4c0-0.3 0.2-0.4 0.4-0.4zm-19.7 4.4v-1.5q0-1-0.5-1.6-0.5-0.7-1.3-0.7-0.7 0-1.3 0.4-0.6 0.4-1 0.8-0.3 0.4-0.7 0.9-0.1 0.2-0.1 0.3v1.4c0 0.2 0.2 0.4 0.4 0.4h4.1c0.2 0 0.4-0.2 0.4-0.4z" />
					</g>
				</g>
			</g>
		</g>
	</g>
</svg>